<svg width="24" height="24" viewBox="0 0 24 24" fill="none" xmlns="http://www.w3.org/2000/svg">
<path d="M8.07132 5.33053C9.00872 5.115 9.98982 5.00054 11.0002 5.00054C16.0881 5.00054 20.4365 7.90319 22.1821 12.0005C20.4365 16.0979 16.0881 19.0005 11.0002 19.0005C9.98982 19.0005 9.00872 18.8861 8.07132 18.6706L6.27562 20.6907C6.11592 20.8704 5.85082 20.9109 5.64462 20.7872L1.54932 18.33C1.31252 18.1879 1.23572 17.8808 1.37782 17.644C1.39882 17.609 1.42412 17.5766 1.45302 17.5477L3.70732 15.2934C3.89482 15.1059 4.00022 14.8515 4.00022 14.5863V9.41476C4.00022 9.14954 3.89482 8.89519 3.70732 8.70765L1.45302 6.45337C1.25772 6.2581 1.25772 5.94152 1.45302 5.74626C1.48192 5.71735 1.51422 5.6921 1.54932 5.67107L5.64462 3.21385C5.85082 3.09014 6.11592 3.13071 6.27562 3.31042L8.07132 5.33053ZM11.0002 12.0005C11.0002 13.1051 11.8956 14.0005 13.0002 14.0005C14.1047 14.0005 15.0002 13.1051 15.0002 12.0005C15.0002 10.896 14.1047 10.0005 13.0002 10.0005C11.8956 10.0005 11.0002 10.896 11.0002 12.0005Z" fill="white"/>
</svg>
