<svg width="90" height="32" viewBox="0 0 90 32" fill="none" xmlns="http://www.w3.org/2000/svg">
<rect y="32" width="30.8674" height="13.8115" rx="6.90575" transform="rotate(-90 0 32)" fill="#00B9FF"/>
<rect x="15.1929" y="32" width="30.8674" height="8.63219" rx="4.3161" transform="rotate(-90 15.1929 32)" fill="#FC83F5"/>
<rect x="25.2061" y="32" width="30.8674" height="5.17932" rx="2.58966" transform="rotate(-90 25.2061 32)" fill="#F7CF1D"/>
<rect x="31.7671" y="32" width="30.8674" height="3.45288" rx="1.72644" transform="rotate(-90 31.7671 32)" fill="black"/>
<path d="M46.0242 14.5428C44.9426 14.5428 44.0031 14.3146 43.2055 13.858C42.4078 13.388 41.786 12.73 41.3398 11.884C40.9072 11.0381 40.6909 10.0511 40.6909 8.9231C40.6909 7.79513 40.9072 6.81486 41.3398 5.98231C41.786 5.13632 42.4078 4.47834 43.2055 4.00835C44.0031 3.53836 44.9426 3.30336 46.0242 3.30336C46.9435 3.30336 47.7614 3.4645 48.4779 3.78678C49.1944 4.10906 49.7757 4.57234 50.2218 5.17661C50.6815 5.76745 50.9654 6.49258 51.0735 7.35199L48.3967 7.49299C48.2886 6.80815 48.0182 6.29116 47.5856 5.94202C47.1665 5.57946 46.646 5.39818 46.0242 5.39818C45.186 5.39818 44.5371 5.71374 44.0774 6.34487C43.6178 6.96257 43.388 7.82198 43.388 8.9231C43.388 10.0377 43.6178 10.9038 44.0774 11.5215C44.5371 12.1392 45.186 12.448 46.0242 12.448C46.6596 12.448 47.1868 12.2668 47.6059 11.9042C48.0385 11.5416 48.3021 10.9776 48.3967 10.2122L51.0735 10.3331C50.9654 11.1925 50.6882 11.9378 50.2421 12.5689C49.796 13.2 49.2146 13.6902 48.4981 14.0393C47.7816 14.375 46.957 14.5428 46.0242 14.5428Z" fill="black"/>
<path d="M56.5753 14.5428C55.5073 14.5428 54.5678 14.3146 53.7566 13.858C52.959 13.388 52.3371 12.73 51.891 11.884C51.4584 11.0381 51.2421 10.0511 51.2421 8.9231C51.2421 7.7817 51.4584 6.79472 51.891 5.96216C52.3371 5.11618 52.959 4.46491 53.7566 4.00835C54.5678 3.53836 55.5073 3.30336 56.5753 3.30336C57.6433 3.30336 58.5761 3.53836 59.3738 4.00835C60.1714 4.46491 60.7865 5.11618 61.2191 5.96216C61.6652 6.79472 61.8883 7.7817 61.8883 8.9231C61.8883 10.0511 61.6652 11.0381 61.2191 11.884C60.7865 12.73 60.1714 13.388 59.3738 13.858C58.5761 14.3146 57.6433 14.5428 56.5753 14.5428ZM56.5753 12.448C57.4135 12.448 58.0557 12.1392 58.5018 11.5215C58.9614 10.9038 59.1912 10.0377 59.1912 8.9231C59.1912 7.82198 58.9614 6.96257 58.5018 6.34487C58.0557 5.71374 57.4135 5.39818 56.5753 5.39818C55.7371 5.39818 55.0882 5.71374 54.6286 6.34487C54.1689 6.96257 53.9391 7.82198 53.9391 8.9231C53.9391 10.0377 54.1689 10.9038 54.6286 11.5215C55.0882 12.1392 55.7371 12.448 56.5753 12.448Z" fill="black"/>
<path d="M66.7303 14.5428C65.811 14.5428 65.0133 14.3146 64.3374 13.858C63.675 13.4014 63.1612 12.7502 62.7962 11.9042C62.4312 11.0582 62.2487 10.0645 62.2487 8.9231C62.2487 7.7817 62.4312 6.788 62.7962 5.94202C63.1612 5.09604 63.6817 4.44477 64.3577 3.9882C65.0336 3.53164 65.8245 3.30336 66.7303 3.30336C67.4873 3.30336 68.1498 3.45779 68.7176 3.76664C69.2989 4.07549 69.7382 4.51191 70.0357 5.0759V0H72.6313V14.3011H70.1573L70.0965 12.7099C69.7991 13.2873 69.3529 13.7372 68.7581 14.0594C68.1633 14.3817 67.4873 14.5428 66.7303 14.5428ZM67.5211 12.448C68.0619 12.448 68.5148 12.3138 68.8798 12.0452C69.2583 11.7766 69.5422 11.3805 69.7315 10.8568C69.9343 10.3196 70.0357 9.67509 70.0357 8.9231C70.0357 8.15769 69.9343 7.51313 69.7315 6.98943C69.5422 6.46573 69.2583 6.06959 68.8798 5.80103C68.5148 5.53246 68.0619 5.39818 67.5211 5.39818C66.737 5.39818 66.1084 5.71374 65.6352 6.34487C65.1756 6.96257 64.9457 7.82198 64.9457 8.9231C64.9457 9.99737 65.1756 10.8568 65.6352 11.5013C66.1084 12.1325 66.737 12.448 67.5211 12.448Z" fill="black"/>
<path d="M78.9446 14.5428C77.863 14.5428 76.9235 14.3146 76.1259 13.858C75.3282 13.388 74.7131 12.73 74.2805 11.884C73.8479 11.0381 73.6316 10.0511 73.6316 8.9231C73.6316 7.79513 73.8479 6.81486 74.2805 5.98231C74.7131 5.13632 75.3215 4.47834 76.1056 4.00835C76.9032 3.53836 77.8293 3.30336 78.8837 3.30336C79.9112 3.30336 80.8102 3.53164 81.5808 3.9882C82.3649 4.44477 82.9665 5.10275 83.3856 5.96216C83.8046 6.82158 84.0142 7.85555 84.0142 9.0641V9.64823H76.3286C76.3827 10.5882 76.6396 11.2999 77.0992 11.7833C77.5724 12.2533 78.1943 12.4883 78.9648 12.4883C79.5462 12.4883 80.0261 12.3607 80.4046 12.1056C80.7967 11.837 81.0671 11.4678 81.2158 10.9978L83.8722 11.1589C83.5748 12.2063 82.9868 13.0322 82.108 13.6364C81.2428 14.2407 80.1883 14.5428 78.9446 14.5428ZM76.3286 7.91598H81.3374C81.2834 7.04314 81.0333 6.39858 80.5871 5.98231C80.141 5.5526 79.5732 5.33775 78.8837 5.33775C78.1943 5.33775 77.6197 5.55932 77.1601 6.00245C76.7139 6.44558 76.4368 7.08343 76.3286 7.91598Z" fill="black"/>
<path d="M41.3196 31.3843V17.6069H43.8138L43.8746 19.9031L43.611 19.7823C43.8814 18.99 44.3208 18.3924 44.9291 17.9896C45.551 17.5733 46.2743 17.3652 47.0989 17.3652C48.1264 17.3652 48.9781 17.6203 49.654 18.1306C50.3435 18.6409 50.8572 19.319 51.1952 20.165C51.5332 21.011 51.7021 21.9509 51.7021 22.9849C51.7021 24.0189 51.5264 24.9589 51.1749 25.8049C50.8369 26.6508 50.3232 27.329 49.6337 27.8392C48.9578 28.3495 48.1061 28.6047 47.0786 28.6047C46.5379 28.6047 46.0309 28.5107 45.5578 28.3227C45.0981 28.1347 44.6993 27.8661 44.3613 27.517C44.0369 27.1678 43.807 26.7583 43.6719 26.2883L43.9152 26.0869V31.3843H41.3196ZM46.4703 26.5098C47.2544 26.5098 47.8695 26.201 48.3156 25.5833C48.7753 24.9522 49.0051 24.086 49.0051 22.9849C49.0051 21.8838 48.7753 21.0244 48.3156 20.4067C47.8695 19.7756 47.2544 19.46 46.4703 19.46C45.9431 19.46 45.4902 19.5943 45.1116 19.8628C44.7331 20.118 44.4357 20.5074 44.2194 21.0311C44.0166 21.5548 43.9152 22.2061 43.9152 22.9849C43.9152 23.7638 44.0166 24.415 44.2194 24.9387C44.4222 25.4624 44.7128 25.8586 45.0914 26.1271C45.4834 26.3823 45.9431 26.5098 46.4703 26.5098Z" fill="black"/>
<path d="M52.7024 28.363V17.6069H55.1359L55.2373 20.588L55.0142 20.5477C55.1764 19.5137 55.4806 18.7684 55.9267 18.3119C56.3864 17.8419 57.0082 17.6069 57.7923 17.6069H58.786V19.8226H57.7721C57.2178 19.8226 56.7581 19.9031 56.3931 20.0643C56.0281 20.2254 55.751 20.4805 55.5617 20.8297C55.386 21.1654 55.2981 21.6085 55.2981 22.1591V28.363H52.7024Z" fill="black"/>
<path d="M63.8585 28.6047C62.777 28.6047 61.8374 28.3764 61.0398 27.9198C60.2421 27.4498 59.627 26.7918 59.1944 25.9459C58.7618 25.0999 58.5455 24.1129 58.5455 22.9849C58.5455 21.8569 58.7618 20.8767 59.1944 20.0441C59.627 19.1981 60.2354 18.5401 61.0195 18.0702C61.8171 17.6002 62.7432 17.3652 63.7976 17.3652C64.8251 17.3652 65.7241 17.5935 66.4947 18.05C67.2788 18.5066 67.8804 19.1646 68.2995 20.024C68.7186 20.8834 68.9281 21.9174 68.9281 23.1259V23.71H61.2425C61.2966 24.65 61.5535 25.3617 62.0131 25.8451C62.4863 26.3151 63.1082 26.5501 63.8787 26.5501C64.4601 26.5501 64.94 26.4226 65.3185 26.1674C65.7106 25.8989 65.981 25.5296 66.1297 25.0596L68.7861 25.2207C68.4887 26.2681 67.9007 27.094 67.0219 27.6982C66.1567 28.3025 65.1022 28.6047 63.8585 28.6047ZM61.2425 21.9778H66.2513C66.1973 21.105 65.9472 20.4604 65.501 20.0441C65.0549 19.6144 64.4871 19.3996 63.7976 19.3996C63.1082 19.3996 62.5336 19.6211 62.074 20.0643C61.6278 20.5074 61.3507 21.1452 61.2425 21.9778Z" fill="black"/>
<path d="M74.3436 28.6047C73.2756 28.6047 72.3766 28.4502 71.6465 28.1414C70.93 27.8325 70.3757 27.4028 69.9837 26.8523C69.5916 26.3017 69.3686 25.6773 69.3145 24.979L71.971 24.8582C72.0656 25.4222 72.3022 25.8586 72.6807 26.1674C73.0593 26.4763 73.6203 26.6307 74.3638 26.6307C74.9722 26.6307 75.4454 26.5367 75.7833 26.3487C76.1348 26.1473 76.3106 25.8384 76.3106 25.4222C76.3106 25.1804 76.2497 24.979 76.1281 24.8179C76.0064 24.6567 75.7766 24.5157 75.4386 24.3949C75.1006 24.274 74.6004 24.1532 73.938 24.0323C72.8294 23.8443 71.9575 23.616 71.3221 23.3475C70.6867 23.0655 70.2338 22.7164 69.9634 22.3001C69.7066 21.8838 69.5781 21.3668 69.5781 20.7491C69.5781 19.742 69.9634 18.9296 70.734 18.3119C71.5181 17.6807 72.6604 17.3652 74.1611 17.3652C75.1344 17.3652 75.9523 17.5263 76.6148 17.8486C77.2772 18.1574 77.7909 18.5871 78.1559 19.1377C78.5345 19.6748 78.771 20.2925 78.8657 20.9908L76.2497 21.1117C76.1822 20.7491 76.0605 20.4335 75.8847 20.165C75.709 19.8964 75.4724 19.695 75.175 19.5607C74.8776 19.413 74.5261 19.3391 74.1205 19.3391C73.5121 19.3391 73.0525 19.46 72.7416 19.7017C72.4306 19.9434 72.2752 20.2657 72.2752 20.6685C72.2752 20.9505 72.3428 21.1855 72.4779 21.3735C72.6267 21.5615 72.8632 21.7159 73.1877 21.8368C73.5121 21.9442 73.9448 22.0449 74.4855 22.1389C75.6211 22.3135 76.5134 22.5418 77.1623 22.8238C77.8247 23.0923 78.2911 23.4415 78.5615 23.8712C78.8454 24.2875 78.9873 24.791 78.9873 25.3819C78.9873 26.0667 78.7913 26.6508 78.3993 27.1343C78.0207 27.6177 77.48 27.987 76.777 28.2421C76.0875 28.4838 75.2764 28.6047 74.3436 28.6047Z" fill="black"/>
<path d="M84.3996 28.6047C83.3316 28.6047 82.4326 28.4502 81.7026 28.1414C80.9861 27.8325 80.4318 27.4028 80.0398 26.8523C79.6477 26.3017 79.4247 25.6773 79.3706 24.979L82.0271 24.8582C82.1217 25.4222 82.3583 25.8586 82.7368 26.1674C83.1153 26.4763 83.6764 26.6307 84.4199 26.6307C85.0283 26.6307 85.5014 26.5367 85.8394 26.3487C86.1909 26.1473 86.3667 25.8384 86.3667 25.4222C86.3667 25.1804 86.3058 24.979 86.1842 24.8179C86.0625 24.6567 85.8327 24.5157 85.4947 24.3949C85.1567 24.274 84.6565 24.1532 83.9941 24.0323C82.8855 23.8443 82.0135 23.616 81.3781 23.3475C80.7428 23.0655 80.2899 22.7164 80.0195 22.3001C79.7626 21.8838 79.6342 21.3668 79.6342 20.7491C79.6342 19.742 80.0195 18.9296 80.7901 18.3119C81.5742 17.6807 82.7165 17.3652 84.2171 17.3652C85.1905 17.3652 86.0084 17.5263 86.6708 17.8486C87.3333 18.1574 87.847 18.5871 88.212 19.1377C88.5905 19.6748 88.8271 20.2925 88.9217 20.9908L86.3058 21.1117C86.2382 20.7491 86.1166 20.4335 85.9408 20.165C85.7651 19.8964 85.5285 19.695 85.2311 19.5607C84.9336 19.413 84.5821 19.3391 84.1766 19.3391C83.5682 19.3391 83.1086 19.46 82.7976 19.7017C82.4867 19.9434 82.3312 20.2657 82.3312 20.6685C82.3312 20.9505 82.3988 21.1855 82.534 21.3735C82.6827 21.5615 82.9193 21.7159 83.2438 21.8368C83.5682 21.9442 84.0008 22.0449 84.5416 22.1389C85.6772 22.3135 86.5694 22.5418 87.2184 22.8238C87.8808 23.0923 88.3472 23.4415 88.6176 23.8712C88.9015 24.2875 89.0434 24.791 89.0434 25.3819C89.0434 26.0667 88.8474 26.6508 88.4553 27.1343C88.0768 27.6177 87.536 27.987 86.8331 28.2421C86.1436 28.4838 85.3325 28.6047 84.3996 28.6047Z" fill="black"/>
</svg>
